<svg width="current" height="current" viewBox="0 0 101 100" fill="none" xmlns="http://www.w3.org/2000/svg">
<g id="AcademyLogo">
<path id="Vector" fill-rule="evenodd" clip-rule="evenodd" d="M80.6611 60.4411L65.0011 52.9711L58.3791 49.812C61.2711 47.9901 63.6201 45.1781 65.1571 41.791C66.4391 38.9674 67.1022 35.9021 67.1021 32.801C67.1021 30.974 66.8121 29.2391 66.4081 27.5651C64.4381 19.4531 58.1031 13.4771 50.4981 13.4771C43.0371 13.4771 36.7981 19.2401 34.7061 27.1211C34.2231 28.9291 33.8911 30.809 33.8911 32.801C33.8911 36.26 34.6991 39.4851 36.0721 42.2901C37.6591 45.5441 40.0121 48.2271 42.8761 49.952L36.5341 52.905L20.3661 60.4351C18.9621 61.0931 18.0391 62.677 18.0391 64.446V86.5221H45.7591V72.92C45.7624 72.7797 45.8035 72.6429 45.8781 72.5241L45.8681 72.518L49.8011 65.7061L49.8111 65.712C49.9511 65.472 50.2001 65.3021 50.4981 65.3021C50.7961 65.3021 51.0451 65.471 51.1851 65.712L51.1891 65.709L51.2251 65.7721C51.2301 65.7821 51.2371 65.7901 51.2411 65.8001L55.1221 72.5211L55.1171 72.5241C55.1917 72.6433 55.2328 72.7804 55.2361 72.921V86.5231H82.9571V64.446C82.9601 62.683 82.0521 61.1141 80.6611 60.4411ZM55.1301 55.892L55.1201 55.8861C55.1949 55.767 55.2354 55.6296 55.2371 55.489C55.2371 55.044 54.8761 54.683 54.4311 54.683H46.5651C46.1201 54.683 45.7591 55.044 45.7591 55.489C45.7624 55.6297 45.8035 55.7668 45.8781 55.8861L45.8741 55.889L49.7551 62.612C49.7581 62.619 49.7641 62.625 49.7671 62.632L49.8071 62.701L49.8121 62.6981C49.8803 62.8208 49.9798 62.9232 50.1005 62.9951C50.2211 63.0669 50.3587 63.1055 50.4991 63.107C50.6395 63.1055 50.777 63.0669 50.8976 62.9951C51.0183 62.9232 51.1178 62.8208 51.1861 62.6981L51.1961 62.704L55.1301 55.892Z" fill="currentColor"/>
</g>
</svg>
