<svg width="current" height="current" viewBox="0 0 1311 485" fill="none" xmlns="http://www.w3.org/2000/svg">
<path d="M6 484.333C8.94552 484.333 11.3333 481.946 11.3333 479C11.3333 476.054 8.94552 473.667 6 473.667C3.05448 473.667 0.666667 476.054 0.666667 479C0.666666 481.946 3.05448 484.333 6 484.333ZM6.00002 0L0.226518 10L11.7735 10L6.00002 0ZM7 479L7.00002 9L5.00002 9L5 479L7 479Z" fill="#C1C9C9"/>
<path d="M0.666667 479C0.666667 481.946 3.05448 484.333 6 484.333C8.94552 484.333 11.3333 481.946 11.3333 479C11.3333 476.054 8.94552 473.667 6 473.667C3.05448 473.667 0.666667 476.054 0.666667 479ZM1311 479L1301 473.226V484.774L1311 479ZM6 480H1302V478H6V480Z" fill="#C1C9C9"/>
</svg>
