<svg viewBox="0 0 6 106" fill="none" xmlns="http://www.w3.org/2000/svg">
<path d="M3 5.66666C4.47276 5.66666 5.66667 4.47276 5.66667 3C5.66667 1.52724 4.47276 0.333336 3 0.333336C1.52725 0.333336 0.333338 1.52724 0.333338 3C0.333338 4.47276 1.52725 5.66666 3 5.66666ZM3.5 106L3.5 105.01L2.5 105.01L2.5 106L3.5 106ZM3.5 103.029L3.5 101.048L2.5 101.048L2.5 103.029L3.5 103.029ZM3.5 99.0673L3.5 97.0865L2.5 97.0865L2.5 99.0673L3.5 99.0673ZM3.5 95.1058L3.5 93.125L2.5 93.125L2.5 95.1058L3.5 95.1058ZM3.5 91.1442L3.5 89.1635L2.5 89.1635L2.5 91.1442L3.5 91.1442ZM3.5 87.1827L3.5 85.2019L2.5 85.2019L2.5 87.1827L3.5 87.1827ZM3.5 83.2212L3.5 81.2404L2.5 81.2404L2.5 83.2212L3.5 83.2212ZM3.5 79.2596L3.5 77.2788L2.5 77.2788L2.5 79.2596L3.5 79.2596ZM3.5 75.2981L3.5 73.3173L2.5 73.3173L2.5 75.2981L3.5 75.2981ZM3.5 71.3365L3.5 69.3558L2.5 69.3558L2.5 71.3365L3.5 71.3365ZM3.5 67.375L3.5 65.3942L2.5 65.3942L2.5 67.375L3.5 67.375ZM3.5 63.4135L3.5 61.4327L2.5 61.4327L2.5 63.4135L3.5 63.4135ZM3.5 59.4519L3.5 57.4711L2.5 57.4711L2.5 59.4519L3.5 59.4519ZM3.5 55.4904L3.5 53.5096L2.5 53.5096L2.5 55.4904L3.5 55.4904ZM3.5 51.5288L3.5 49.5481L2.5 49.5481L2.5 51.5288L3.5 51.5288ZM3.5 47.5673L3.5 45.5865L2.5 45.5865L2.5 47.5673L3.5 47.5673ZM3.5 43.6058L3.5 41.625L2.5 41.625L2.5 43.6058L3.5 43.6058ZM3.5 39.6442L3.5 37.6635L2.5 37.6635L2.5 39.6442L3.5 39.6442ZM3.5 35.6827L3.5 33.7019L2.5 33.7019L2.5 35.6827L3.5 35.6827ZM3.5 31.7212L3.5 29.7404L2.5 29.7404L2.5 31.7212L3.5 31.7212ZM3.5 27.7596L3.5 25.7789L2.5 25.7789L2.5 27.7596L3.5 27.7596ZM3.5 23.7981L3.5 21.8173L2.5 21.8173L2.5 23.7981L3.5 23.7981ZM3.5 19.8366L3.5 17.8558L2.5 17.8558L2.5 19.8366L3.5 19.8366ZM3.5 15.875L3.5 13.8943L2.5 13.8943L2.5 15.875L3.5 15.875ZM3.5 11.9135L3.5 9.93272L2.5 9.93272L2.5 11.9135L3.5 11.9135ZM3.5 7.95196L3.5 5.97119L2.5 5.97119L2.5 7.95196L3.5 7.95196ZM3.5 3.99043L3.5 3L2.5 3L2.5 3.99043L3.5 3.99043Z" fill="currentColor"/>
</svg>
