<svg viewBox="0 0 29 29" fill="none" xmlns="http://www.w3.org/2000/svg">
<path d="M7.95469 4.70425C9.89211 3.40971 12.1699 2.71875 14.5 2.71875C17.6236 2.72205 20.6183 3.96434 22.827 6.17304C25.0357 8.38174 26.278 11.3764 26.2813 14.5C26.2813 16.8301 25.5903 19.1079 24.2958 21.0453C23.0012 22.9827 21.1612 24.4928 19.0085 25.3845C16.8558 26.2761 14.4869 26.5095 12.2016 26.0549C9.91626 25.6003 7.81704 24.4782 6.1694 22.8306C4.52177 21.183 3.39971 19.0837 2.94513 16.7984C2.49055 14.5131 2.72385 12.1443 3.61555 9.99151C4.50724 7.83877 6.01728 5.99879 7.95469 4.70425Z" fill="#4433FF"/>
<path d="M18.7662 17.4838C18.8504 17.568 18.9172 17.668 18.9627 17.778C19.0083 17.888 19.0318 18.0059 19.0318 18.125C19.0318 18.2441 19.0083 18.362 18.9627 18.472C18.9172 18.582 18.8504 18.682 18.7662 18.7662C18.682 18.8504 18.582 18.9172 18.472 18.9627C18.362 19.0083 18.2441 19.0318 18.125 19.0318C18.0059 19.0318 17.888 19.0083 17.778 18.9627C17.668 18.9172 17.568 18.8504 17.4838 18.7662L14.5 15.7812L11.5162 18.7662C11.432 18.8504 11.332 18.9172 11.222 18.9627C11.112 19.0083 10.9941 19.0318 10.875 19.0318C10.7559 19.0318 10.638 19.0083 10.528 18.9627C10.418 18.9172 10.318 18.8504 10.2338 18.7662C10.1496 18.682 10.0829 18.582 10.0373 18.472C9.99172 18.362 9.96826 18.2441 9.96826 18.125C9.96826 18.0059 9.99172 17.888 10.0373 17.778C10.0829 17.668 10.1496 17.568 10.2338 17.4838L13.2188 14.5L10.2338 11.5162C10.0638 11.3461 9.96826 11.1155 9.96826 10.875C9.96826 10.6345 10.0638 10.4039 10.2338 10.2338C10.4039 10.0638 10.6345 9.96826 10.875 9.96826C11.1155 9.96826 11.3461 10.0638 11.5162 10.2338L14.5 13.2188L17.4838 10.2338C17.568 10.1496 17.668 10.0829 17.778 10.0373C17.888 9.99171 18.0059 9.96826 18.125 9.96826C18.2441 9.96826 18.362 9.99171 18.472 10.0373C18.582 10.0829 18.682 10.1496 18.7662 10.2338C18.8504 10.318 18.9172 10.418 18.9627 10.528C19.0083 10.638 19.0318 10.7559 19.0318 10.875C19.0318 10.9941 19.0083 11.112 18.9627 11.222C18.9172 11.332 18.8504 11.432 18.7662 11.5162L15.7812 14.5L18.7662 17.4838Z" fill="white"/>
</svg>
