<svg viewBox="0 0 29 29" fill="none" xmlns="http://www.w3.org/2000/svg">
<path d="M18.7662 17.4838C18.8504 17.568 18.9172 17.668 18.9627 17.778C19.0083 17.888 19.0318 18.0059 19.0318 18.125C19.0318 18.2441 19.0083 18.362 18.9627 18.472C18.9172 18.582 18.8504 18.682 18.7662 18.7662C18.682 18.8504 18.582 18.9172 18.472 18.9627C18.362 19.0083 18.2441 19.0318 18.125 19.0318C18.0059 19.0318 17.888 19.0083 17.778 18.9627C17.668 18.9172 17.568 18.8504 17.4838 18.7662L14.5 15.7812L11.5162 18.7662C11.432 18.8504 11.332 18.9172 11.222 18.9627C11.112 19.0083 10.9941 19.0318 10.875 19.0318C10.7559 19.0318 10.638 19.0083 10.528 18.9627C10.418 18.9172 10.318 18.8504 10.2338 18.7662C10.1496 18.682 10.0828 18.582 10.0373 18.472C9.9917 18.362 9.96825 18.2441 9.96825 18.125C9.96825 18.0059 9.9917 17.888 10.0373 17.778C10.0828 17.668 10.1496 17.568 10.2338 17.4838L13.2188 14.5L10.2338 11.5162C10.0638 11.3461 9.96825 11.1155 9.96825 10.875C9.96825 10.6345 10.0638 10.4039 10.2338 10.2338C10.4039 10.0638 10.6345 9.96825 10.875 9.96825C11.1155 9.96825 11.3461 10.0638 11.5162 10.2338L14.5 13.2188L17.4838 10.2338C17.568 10.1496 17.668 10.0828 17.778 10.0373C17.888 9.9917 18.0059 9.96825 18.125 9.96825C18.2441 9.96825 18.362 9.9917 18.472 10.0373C18.582 10.0828 18.682 10.1496 18.7662 10.2338C18.8504 10.318 18.9172 10.418 18.9627 10.528C19.0083 10.638 19.0318 10.7559 19.0318 10.875C19.0318 10.9941 19.0083 11.112 18.9627 11.222C18.9172 11.332 18.8504 11.432 18.7662 11.5162L15.7812 14.5L18.7662 17.4838Z" fill="#C1C9C9"/>
</svg>
