<svg width="current" height="current" viewBox="0 0 21 20" fill="none" xmlns="http://www.w3.org/2000/svg">
<g id="ri:customer-service-2-fill">
<path id="Vector" d="M17.8627 6.72688C18.2966 6.72688 18.7129 6.89928 19.0197 7.20616C19.3266 7.51304 19.499 7.92925 19.499 8.36324V11.636C19.499 12.07 19.3266 12.4862 19.0197 12.7931C18.7129 13.0999 18.2966 13.2723 17.8627 13.2723H16.9938C16.7943 14.8541 16.0244 16.3088 14.8286 17.3632C13.6328 18.4177 12.0933 18.9996 10.499 18.9996V17.3632C11.801 17.3632 13.0496 16.846 13.9703 15.9254C14.8909 15.0048 15.4081 13.7561 15.4081 12.4542V7.54506C15.4081 6.24309 14.8909 4.99444 13.9703 4.07381C13.0496 3.15318 11.801 2.63597 10.499 2.63597C9.19705 2.63597 7.94841 3.15318 7.02777 4.07381C6.10714 4.99444 5.58993 6.24309 5.58993 7.54506V13.2723H3.13539C2.7014 13.2723 2.28518 13.0999 1.9783 12.7931C1.67143 12.4862 1.49902 12.07 1.49902 11.636V8.36324C1.49902 7.92925 1.67143 7.51304 1.9783 7.20616C2.28518 6.89928 2.7014 6.72688 3.13539 6.72688H4.0043C4.20396 5.14525 4.97391 3.69083 6.16967 2.63652C7.36544 1.58222 8.90484 1.00049 10.499 1.00049C12.0932 1.00049 13.6326 1.58222 14.8284 2.63652C16.0241 3.69083 16.7941 5.14525 16.9938 6.72688H17.8627ZM7.02993 13.0964L7.8972 11.7088C8.67699 12.1973 9.57887 12.4556 10.499 12.4542C11.4192 12.4556 12.3211 12.1973 13.1008 11.7088L13.9681 13.0964C12.9284 13.7478 11.7259 14.0924 10.499 14.0905C9.27212 14.0924 8.06961 13.7479 7.02993 13.0964Z" fill="#C1C9C9"/>
</g>
</svg>
