<svg viewBox="0 0 60 296" fill="none" xmlns="http://www.w3.org/2000/svg">
<path d="M53.9814 113.192C54.0874 112.65 53.7338 112.124 53.1918 112.019L44.3588 110.293C43.8168 110.187 43.2915 110.54 43.1856 111.082C43.0797 111.624 43.4332 112.15 43.9753 112.255L51.8268 113.79L50.2926 121.641C50.1867 122.183 50.5402 122.708 51.0822 122.814C51.6243 122.92 52.1495 122.567 52.2555 122.025L53.9814 113.192ZM0.441623 147.17C-0.0165448 147.479 -0.137971 148.1 0.170412 148.558C0.478795 149.017 1.10021 149.138 1.55838 148.83L0.441623 147.17ZM52.4416 112.17L0.441623 147.17L1.55838 148.83L53.5584 113.83L52.4416 112.17Z" fill="currentColor"/>
<path d="M53.6838 107.949C54.2077 108.123 54.774 107.84 54.9487 107.316L57.7947 98.7781C57.9694 98.2541 57.6862 97.6878 57.1623 97.5132C56.6383 97.3385 56.072 97.6217 55.8974 98.1456L53.3675 105.735L45.7781 103.205C45.2541 103.031 44.6878 103.314 44.5132 103.838C44.3385 104.362 44.6217 104.928 45.1456 105.103L53.6838 107.949ZM1.89443 0.552786C1.64744 0.058808 1.04676 -0.141417 0.552786 0.105572C0.0588077 0.352562 -0.141416 0.953235 0.105573 1.44721L1.89443 0.552786ZM54.8944 106.553L1.89443 0.552786L0.105573 1.44721L53.1056 107.447L54.8944 106.553Z" fill="currentColor"/>
<path d="M54.8855 124.535C54.6289 124.046 54.0245 123.858 53.5354 124.114L45.5657 128.296C45.0767 128.552 44.8882 129.157 45.1448 129.646C45.4014 130.135 46.0059 130.324 46.4949 130.067L53.5791 126.35L57.2959 133.434C57.5525 133.923 58.1569 134.112 58.646 133.855C59.1351 133.599 59.3235 132.994 59.0669 132.505L54.8855 124.535ZM0.045317 294.702C-0.119065 295.23 0.175106 295.79 0.702361 295.955C1.22962 296.119 1.79029 295.825 1.95468 295.298L0.045317 294.702ZM53.0453 124.702L0.045317 294.702L1.95468 295.298L54.9547 125.298L53.0453 124.702Z" fill="currentColor"/>
<path d="M56.9701 190.243C57.1041 189.707 56.7783 189.164 56.2425 189.03L47.5113 186.847C46.9755 186.713 46.4325 187.039 46.2986 187.575C46.1646 188.11 46.4904 188.653 47.0262 188.787L54.7873 190.728L52.847 198.489C52.7131 199.025 53.0388 199.567 53.5746 199.701C54.1104 199.835 54.6534 199.51 54.7873 198.974L56.9701 190.243ZM0.485506 222.143C0.0119258 222.427 -0.14164 223.041 0.142509 223.514C0.426657 223.988 1.04092 224.142 1.5145 223.857L0.485506 222.143ZM55.4855 189.143L0.485506 222.143L1.5145 223.857L56.5145 190.857L55.4855 189.143Z" fill="currentColor"/>
<path d="M55.698 181.953C56.2245 182.12 56.7865 181.828 56.9533 181.302L59.6711 172.722C59.8379 172.196 59.5463 171.634 59.0198 171.467C58.4933 171.3 57.9313 171.592 57.7645 172.118L55.3487 179.745L47.7222 177.329C47.1957 177.162 46.6336 177.454 46.4669 177.98C46.3001 178.507 46.5917 179.069 47.1182 179.235L55.698 181.953ZM1.88763 74.5394C1.63326 74.0492 1.02966 73.858 0.539436 74.1124C0.0492129 74.3667 -0.141991 74.9703 0.11237 75.4606L1.88763 74.5394ZM56.8876 180.539L1.88763 74.5394L0.11237 75.4606L55.1124 181.461L56.8876 180.539Z" fill="currentColor"/>
</svg>
