<svg width="current" height="current" viewBox="0 0 28 28" fill="none" xmlns="http://www.w3.org/2000/svg">
<g id="logo">
<path id="Vector" d="M6.99967 14C6.998 15.6525 7.58102 17.2524 8.64554 18.5163C9.71006 19.7803 11.1874 20.6269 12.8162 20.9063C14.4449 21.1857 16.12 20.8799 17.5449 20.0429C18.9698 19.206 20.0527 17.8919 20.6018 16.3333H13.9997V11.6667H25.4388V16.3333H25.433C24.3515 21.658 19.644 25.6667 13.9997 25.6667C7.55618 25.6667 2.33301 20.4435 2.33301 14C2.33301 7.5565 7.55618 2.33333 13.9997 2.33333C15.9066 2.33197 17.7848 2.79854 19.4694 3.69211C21.154 4.58568 22.5936 5.87895 23.662 7.4585L19.8377 10.136C19.0075 8.88114 17.795 7.92718 16.3801 7.41552C14.9651 6.90386 13.423 6.86173 11.9822 7.29538C10.5414 7.72903 9.27872 8.61537 8.38125 9.82303C7.48378 11.0307 6.99932 12.4954 6.99967 14Z" fill="black"/>
</g>
</svg>
