<svg viewBox="0 0 1440 236" fill="none" xmlns="http://www.w3.org/2000/svg">
<g style="mix-blend-mode:multiply">
<path fill-rule="evenodd" clip-rule="evenodd" d="M0 130.028H40C80 130.028 160 130.028 240 143.505C320 156.368 400 183.32 480 191.896C560 200.472 640 191.896 720 156.368C800 121.453 880 59.5849 960 28.9572C1040 -2.28295 1120 -2.28295 1200 2.00492C1280 6.90534 1360 15.4811 1400 19.7689L1440 24.0568V236H1400C1360 236 1280 236 1200 236C1120 236 1040 236 960 236C880 236 800 236 720 236C640 236 560 236 480 236C400 236 320 236 240 236C160 236 80 236 40 236H0V130.028Z" fill="#E7F1F1"/>
</g>
<g style="mix-blend-mode:multiply">
<path fill-rule="evenodd" clip-rule="evenodd" d="M0 51L60 59.5762C120 68.1523 240 85.9172 360 81.6291C480 77.3411 600 51 720 55.2881C840 59.5762 960 95.106 1080 107.97C1200 121.447 1320 112.258 1380 107.97L1440 103.682V236H1380C1320 236 1200 236 1080 236C960 236 840 236 720 236C600 236 480 236 360 236C240 236 120 236 60 236H0V51Z" fill="#E7F1F1"/>
</g>
<g style="mix-blend-mode:multiply">
<path fill-rule="evenodd" clip-rule="evenodd" d="M0 77.3411L60 73.053C120 68.1523 240 59.5762 360 77.3411C480 95.106 600 139.212 720 143.5C840 147.788 960 112.258 1080 90.2053C1200 68.1523 1320 59.5762 1380 55.2881L1440 51V236H1380C1320 236 1200 236 1080 236C960 236 840 236 720 236C600 236 480 236 360 236C240 236 120 236 60 236H0V77.3411Z" fill="#E7F1F1"/>
</g>
</svg>
