<svg width="current" height="current" viewBox="0 0 28 28" fill="none" xmlns="http://www.w3.org/2000/svg">
<g id="logo" clip-path="url(#clip0_2353_1320)">
<path id="Vector" d="M3.58633 12.18L4.3505 12.7318L2.47217 15.0885L4.648 17.6983L3.89433 18.2817L1.3265 15.141L3.58633 12.18ZM0.9765 18.1323H0V9.93066L0.9765 9.71833V18.1323ZM25.41 13.02C24.9002 13.02 24.5093 13.2102 24.2375 13.5917C23.9645 13.9743 23.8292 14.5332 23.8292 15.2693C23.8292 15.9973 23.9645 16.548 24.2375 16.919C24.5093 17.29 24.9002 17.4767 25.41 17.4767C25.9257 17.4767 26.32 17.29 26.593 16.919C26.8648 16.548 27.0013 15.9973 27.0013 15.2693C27.0013 14.5343 26.8648 13.9743 26.593 13.5928C26.32 13.2102 25.9257 13.02 25.41 13.02ZM25.41 12.2348C26.215 12.2348 26.8497 12.4962 27.3082 13.02C27.769 13.5427 27.9988 14.2928 27.9988 15.2693C27.9988 16.2307 27.7713 16.9703 27.314 17.486C26.859 18.0028 26.2232 18.2618 25.41 18.2618C24.6038 18.2618 23.9703 18.0028 23.5107 17.4872C23.051 16.9703 22.82 16.2307 22.82 15.2693C22.82 14.2928 23.0522 13.5427 23.5153 13.02C23.9785 12.4962 24.6108 12.2348 25.41 12.2348ZM18.9537 17.444C19.0941 17.4433 19.234 17.4257 19.3702 17.3915C19.5178 17.3555 19.6628 17.3095 19.8042 17.2538C19.9459 17.198 20.0819 17.1284 20.2102 17.0462C20.3304 16.9696 20.4436 16.8825 20.5485 16.786V15.428H19.5335C19.0202 15.428 18.6445 15.5167 18.4088 15.694C18.1732 15.8702 18.0553 16.149 18.0553 16.5317C18.0553 17.1407 18.354 17.444 18.9537 17.444ZM17.122 16.5748C17.122 15.9868 17.318 15.54 17.71 15.2332C18.1032 14.924 18.6737 14.77 19.4238 14.77H20.5485V14.399C20.5485 13.5007 20.1518 13.0515 19.3597 13.0515C19.1053 13.0515 18.8382 13.0865 18.5593 13.1577C18.2793 13.2277 18.0227 13.3175 17.7893 13.4225L17.5035 12.7342C17.794 12.5708 18.1067 12.4448 18.4427 12.3562C18.7775 12.2687 19.1053 12.2232 19.4227 12.2232C20.7958 12.2232 21.483 12.9558 21.483 14.42V18.1335H20.7597L20.643 17.4977C20.3537 17.731 20.0445 17.9107 19.7155 18.039C19.4169 18.16 19.0985 18.2245 18.7763 18.2292C18.2595 18.2292 17.8547 18.0833 17.5618 17.7893C17.2678 17.4953 17.122 17.0905 17.122 16.5748ZM15.1958 12.1812L15.96 12.733L14.0817 15.0897L16.2563 17.6995L15.5038 18.2828L12.936 15.1422L15.1958 12.1812ZM12.586 18.1335H11.6095V9.93183L12.586 9.7195V18.1335ZM7.343 17.4452C7.47717 17.4452 7.616 17.4265 7.76067 17.3915C7.90749 17.3554 8.05171 17.3094 8.19233 17.2538C8.33498 17.1983 8.47176 17.1287 8.60067 17.0462C8.72098 16.9697 8.83421 16.8826 8.939 16.786V15.428H7.924C7.41067 15.428 7.035 15.5167 6.79817 15.694C6.5625 15.8702 6.44467 16.149 6.44467 16.5317C6.44467 17.1407 6.7445 17.444 7.343 17.444M5.51133 16.5748C5.51133 15.9868 5.70733 15.54 6.1005 15.2332C6.4925 14.924 7.06417 14.77 7.81317 14.77H8.939V14.399C8.939 13.5007 8.54233 13.0515 7.749 13.0515C7.49583 13.0515 7.22867 13.0865 6.94867 13.1577C6.66867 13.2277 6.412 13.3175 6.17867 13.4225L5.89283 12.7342C6.18333 12.5708 6.496 12.4448 6.832 12.3562C7.168 12.2687 7.49583 12.2243 7.81317 12.2243C9.18633 12.2243 9.87233 12.9558 9.87233 14.42V18.1335H9.15133L9.03467 17.4977C8.743 17.731 8.43383 17.9107 8.106 18.039C7.777 18.1662 7.46433 18.2292 7.16567 18.2292C6.65 18.2292 6.24517 18.0833 5.95233 17.7893C5.65833 17.4953 5.51133 17.0905 5.51133 16.5748Z" fill="#1A1600"/>
</g>
<defs>
<clipPath id="clip0_2353_1320">
<rect width="28" height="28" fill="white"/>
</clipPath>
</defs>
</svg>
