<svg  viewBox="0 0 164 34" fill="none" xmlns="http://www.w3.org/2000/svg">
<path d="M163.623 14.3883C162.303 14.3883 161.012 14.6229 159.751 15.0923C158.519 15.5616 157.199 16.4563 155.791 17.7763V33.0003H152.183V11.2203H155.615V14.7403C157.111 13.2736 158.475 12.2469 159.707 11.6603C160.968 11.0736 162.273 10.7803 163.623 10.7803V14.3883Z" fill="white"/>
<path d="M147.826 20.7683V23.4083C147.826 26.5176 147.019 28.9669 145.406 30.7563C143.822 32.5456 141.548 33.4403 138.586 33.4403C135.652 33.4403 133.379 32.5456 131.766 30.7563C130.152 28.9669 129.346 26.5176 129.346 23.4083V20.7683C129.346 17.7176 130.138 15.2976 131.722 13.5083C133.335 11.6896 135.623 10.7803 138.586 10.7803C141.548 10.7803 143.822 11.6896 145.406 13.5083C147.019 15.2976 147.826 17.7176 147.826 20.7683ZM144.086 20.7683C144.086 18.6856 143.616 17.0576 142.678 15.8843C141.739 14.6816 140.375 14.0803 138.586 14.0803C136.826 14.0803 135.462 14.6816 134.494 15.8843C133.555 17.0576 133.086 18.6856 133.086 20.7683V23.4083C133.086 25.5789 133.555 27.2509 134.494 28.4243C135.462 29.5976 136.826 30.1843 138.586 30.1843C140.375 30.1843 141.739 29.5976 142.678 28.4243C143.616 27.2509 144.086 25.5789 144.086 23.4083V20.7683Z" fill="white"/>
<path d="M121.132 27.7204V0.44043H124.74V27.5444C124.74 28.3364 124.857 28.9378 125.092 29.3484C125.356 29.7298 125.869 29.9204 126.632 29.9204H127.336V33.2204H126.324C124.388 33.2204 123.039 32.7071 122.276 31.6804C121.513 30.6538 121.132 29.3338 121.132 27.7204Z" fill="white"/>
<path d="M116.819 20.7683V23.4083C116.819 26.5176 116.012 28.9669 114.399 30.7563C112.815 32.5456 110.542 33.4403 107.579 33.4403C104.646 33.4403 102.372 32.5456 100.759 30.7563C99.1455 28.9669 98.3389 26.5176 98.3389 23.4083V20.7683C98.3389 17.7176 99.1309 15.2976 100.715 13.5083C102.328 11.6896 104.616 10.7803 107.579 10.7803C110.542 10.7803 112.815 11.6896 114.399 13.5083C116.012 15.2976 116.819 17.7176 116.819 20.7683ZM113.079 20.7683C113.079 18.6856 112.61 17.0576 111.671 15.8843C110.732 14.6816 109.368 14.0803 107.579 14.0803C105.819 14.0803 104.455 14.6816 103.487 15.8843C102.548 17.0576 102.079 18.6856 102.079 20.7683V23.4083C102.079 25.5789 102.548 27.2509 103.487 28.4243C104.455 29.5976 105.819 30.1843 107.579 30.1843C109.368 30.1843 110.732 29.5976 111.671 28.4243C112.61 27.2509 113.079 25.5789 113.079 23.4083V20.7683Z" fill="white"/>
<path d="M82.9014 21.3397C82.9014 24.097 83.4441 26.2237 84.5294 27.7197C85.6441 29.1863 87.3454 29.9196 89.6334 29.9196C90.6307 29.9196 91.6134 29.8023 92.5814 29.5677C93.5494 29.333 94.7081 28.9223 96.0574 28.3356L97.3334 31.5917C95.8961 32.237 94.5321 32.7063 93.2414 32.9997C91.9507 33.293 90.7041 33.4396 89.5014 33.4396C86.0401 33.4396 83.4147 32.3543 81.6254 30.1836C79.8361 28.013 78.9414 25.065 78.9414 21.3397V14.7397C78.9414 11.0143 79.8361 8.06632 81.6254 5.89565C83.4147 3.72498 86.0401 2.63965 89.5014 2.63965C90.7041 2.63965 91.9507 2.78632 93.2414 3.07965C94.5614 3.37298 95.8961 3.84232 97.2454 4.48765L96.0134 7.78765C93.6374 6.73165 91.5107 6.20365 89.6334 6.20365C87.3454 6.20365 85.6441 6.93698 84.5294 8.40365C83.4441 9.87032 82.9014 11.9823 82.9014 14.7397V21.3397Z" fill="white"/>
<path d="M67.489 30.9317C66.6384 31.489 65.421 32.0463 63.837 32.6037C62.2824 33.161 60.405 33.4396 58.205 33.4396C55.829 33.4396 53.8197 32.941 52.177 31.9437C50.5637 30.917 49.3317 29.4943 48.481 27.6756C47.6597 25.8276 47.249 23.701 47.249 21.2957V14.7397C47.249 10.985 48.1877 8.03698 50.065 5.89565C51.9717 3.72498 54.729 2.63965 58.337 2.63965C59.657 2.63965 61.0357 2.78632 62.473 3.07965C63.9397 3.37298 65.3917 3.85698 66.829 4.53165L65.597 7.83165C62.957 6.74632 60.5517 6.20365 58.381 6.20365C55.9757 6.20365 54.1717 6.93698 52.969 8.40365C51.7957 9.84098 51.209 11.953 51.209 14.7397V21.2957C51.209 23.9357 51.8104 26.033 53.013 27.5877C54.2157 29.1423 56.0344 29.9196 58.469 29.9196C59.4077 29.9196 60.361 29.817 61.329 29.6117C62.3264 29.4063 63.2064 29.1277 63.969 28.7757V20.7236H58.381V17.3357H67.489V30.9317Z" fill="white"/>
<path d="M22.7529 33.0001V3.08008H32.0369C35.4689 3.08008 38.1089 4.12141 39.9569 6.20408C41.8049 8.25741 42.7289 11.1027 42.7289 14.7401V21.2961C42.7289 24.9627 41.8049 27.8374 39.9569 29.9201C38.1089 31.9734 35.4689 33.0001 32.0369 33.0001H22.7529ZM31.9489 6.68808H26.5809V29.4361H31.9489C36.4956 29.4361 38.7689 26.7227 38.7689 21.2961V14.7401C38.7689 9.37208 36.4956 6.68808 31.9489 6.68808Z" fill="white"/>
<path d="M4.2598 21.3397C4.2598 24.097 4.80247 26.2237 5.8878 27.7197C7.00247 29.1863 8.7038 29.9196 10.9918 29.9196C11.9891 29.9196 12.9718 29.8023 13.9398 29.5677C14.9078 29.333 16.0665 28.9223 17.4158 28.3356L18.6918 31.5917C17.2545 32.237 15.8905 32.7063 14.5998 32.9997C13.3091 33.293 12.0625 33.4396 10.8598 33.4396C7.39847 33.4396 4.77314 32.3543 2.9838 30.1836C1.19447 28.013 0.299805 25.065 0.299805 21.3397V14.7397C0.299805 11.0143 1.19447 8.06632 2.9838 5.89565C4.77314 3.72498 7.39847 2.63965 10.8598 2.63965C12.0625 2.63965 13.3091 2.78632 14.5998 3.07965C15.9198 3.37298 17.2545 3.84232 18.6038 4.48765L17.3718 7.78765C14.9958 6.73165 12.8691 6.20365 10.9918 6.20365C8.7038 6.20365 7.00247 6.93698 5.8878 8.40365C4.80247 9.87032 4.2598 11.9823 4.2598 14.7397V21.3397Z" fill="white"/>
</svg>
