<svg viewBox="0 0 30 30" fill="none" xmlns="http://www.w3.org/2000/svg">
<path fill-rule="evenodd" clip-rule="evenodd" d="M22.4992 27.5011C25.2622 27.5011 27.5 25.2623 27.5 22.5013V7.50089C27.5 4.73887 25.2622 2.50009 22.4992 2.50009H7.4998C4.73878 2.50009 2.5 4.73887 2.5 7.50089V22.5013C2.5 25.2623 4.73878 27.5011 7.4998 27.5011H22.4992ZM7.67752 4.41134H22.3224C24.1897 4.41134 25.7036 5.93015 25.7036 7.80445V15.8529C25.7036 17.7272 24.1897 19.246 22.3224 19.246H17.2777L15.5562 22.0489C15.5562 22.0489 15.5412 22.0819 15.4983 22.1328C15.3974 22.3036 15.2137 22.4194 15 22.4194C14.7863 22.4194 14.6005 22.3026 14.4997 22.1298C14.4627 22.0829 14.4438 22.0499 14.4438 22.0499L12.7223 19.247H7.67752C5.81021 19.247 4.29639 17.7282 4.29639 15.8539V7.80445C4.29639 5.93015 5.81021 4.41134 7.67752 4.41134Z" fill="white"/>
<path d="M9.05057 10.3099C9.05057 10.3099 8.46641 10.3099 7.93617 10.8261V8.74811H6.62506V14.2082H7.94915V13.7809C7.94915 13.7809 8.2617 14.345 9.04957 14.345C9.04957 14.345 10.8969 14.2771 10.8969 12.307C10.8969 12.307 10.829 10.3099 9.04957 10.3099H9.05057ZM8.76198 13.1917C8.29665 13.1917 7.9192 12.8143 7.9192 12.3489C7.9192 11.8836 8.29665 11.5071 8.76198 11.5071C9.22731 11.5071 9.60377 11.8846 9.60377 12.3489C9.60377 12.8133 9.22632 13.1917 8.76198 13.1917Z" fill="white"/>
<path d="M11.3183 8.62527V9.88846C11.3183 9.88846 11.9164 9.86149 11.9164 10.9749V14.2072H13.1796V10.6763C13.1796 10.6763 13.2335 8.62527 11.3183 8.62527Z" fill="white"/>
<path d="M16.2692 10.3268C16.2692 10.3268 14.1033 10.3268 14.1033 12.3489C14.1033 12.3489 14.0334 14.344 16.2692 14.344C16.2692 14.344 18.485 14.341 18.485 12.3489C18.485 12.3489 18.5569 10.3268 16.2692 10.3268ZM16.2692 13.1917C15.8039 13.1917 15.4264 12.8142 15.4264 12.3489C15.4264 11.8836 15.8039 11.5071 16.2692 11.5071C16.7345 11.5071 17.111 11.8846 17.111 12.3489C17.111 12.8132 16.7335 13.1917 16.2692 13.1917Z" fill="white"/>
<path d="M22.1008 10.4596V10.8261C22.1008 10.8261 21.7243 10.3268 21.0014 10.3268C21.0014 10.3268 19.147 10.2489 19.147 12.3349C19.147 12.3349 19.1261 14.2791 20.9504 14.2791C20.9504 14.2791 21.6944 14.3091 22.1008 13.7799V14.0854C22.1008 14.0854 22.1927 15.043 21.266 15.043H20.9504V16.2044H21.4597C21.4597 16.2044 23.375 16.2253 23.375 14.1573V10.4596H22.1018H22.1008ZM21.3169 13.1917C20.8516 13.1917 20.4751 12.8142 20.4751 12.3489C20.4751 11.8836 20.8516 11.5071 21.3169 11.5071C21.7822 11.5071 22.1587 11.8846 22.1587 12.3489C22.1587 12.8132 21.7813 13.1917 21.3169 13.1917Z" fill="white"/>
</svg>
