<svg viewBox="0 0 29 84" fill="none" xmlns="http://www.w3.org/2000/svg">
<path d="M25.9688 1.37717C25.8319 0.842112 25.2872 0.519323 24.7522 0.656197L16.0329 2.8867C15.4979 3.02357 15.1751 3.56828 15.312 4.10333C15.4488 4.63839 15.9936 4.96118 16.5286 4.8243L24.279 2.84164L26.2617 10.5921C26.3986 11.1271 26.9433 11.4499 27.4783 11.313C28.0134 11.1762 28.3362 10.6314 28.1993 10.0964L25.9688 1.37717ZM1 42.125L0.139708 41.6152C-0.0470665 41.9304 -0.0465333 42.3225 0.141098 42.6371L1 42.125ZM24.7548 83.3445C25.2902 83.4799 25.8341 83.1556 25.9695 82.6202L28.1763 73.8949C28.3117 73.3595 27.9874 72.8157 27.452 72.6803C26.9165 72.5448 26.3727 72.8691 26.2373 73.4045L24.2757 81.1603L16.5199 79.1987C15.9845 79.0633 15.4407 79.3876 15.3053 79.923C15.1698 80.4585 15.4941 81.0023 16.0295 81.1377L24.7548 83.3445ZM24.1397 1.1152L0.139708 41.6152L1.86029 42.6348L25.8603 2.1348L24.1397 1.1152ZM25.8589 81.8629L1.8589 41.6129L0.141098 42.6371L24.1411 82.8871L25.8589 81.8629Z" fill="currentColor"/>
</svg>
