<svg viewBox="0 0 30 120" fill="none" xmlns="http://www.w3.org/2000/svg">
<path d="M1 59.75C0.447715 59.75 0 60.1977 0 60.75C0 61.3023 0.447715 61.75 1 61.75V59.75ZM25.7071 61.4571C26.0976 61.0666 26.0976 60.4334 25.7071 60.0429L19.3431 53.6789C18.9526 53.2884 18.3195 53.2884 17.9289 53.6789C17.5384 54.0695 17.5384 54.7026 17.9289 55.0931L23.5858 60.75L17.9289 66.4069C17.5384 66.7974 17.5384 67.4305 17.9289 67.8211C18.3195 68.2116 18.9526 68.2116 19.3431 67.8211L25.7071 61.4571ZM1 61.75H25V59.75H1V61.75Z" fill="currentColor"/>
<path d="M1.92284 60.3648C1.71011 59.8551 1.12448 59.6144 0.614815 59.8272C0.105145 60.0399 -0.135571 60.6255 0.0771607 61.1352L1.92284 60.3648ZM24.6198 119.175C25.1306 119.385 25.7149 119.141 25.9249 118.63L29.3465 110.306C29.5565 109.795 29.3126 109.211 28.8018 109.001C28.291 108.791 27.7067 109.035 27.4967 109.546L24.4553 116.945L17.056 113.903C16.5451 113.694 15.9608 113.937 15.7509 114.448C15.5409 114.959 15.7848 115.543 16.2956 115.753L24.6198 119.175ZM0.0771607 61.1352L24.0772 118.635L25.9228 117.865L1.92284 60.3648L0.0771607 61.1352Z" fill="currentColor"/>
<path d="M0.0737046 60.3732C-0.134395 60.8848 0.111623 61.4682 0.623202 61.6763C1.13478 61.8844 1.7182 61.6384 1.9263 61.1268L0.0737046 60.3732ZM25.9214 1.36145C25.7068 0.852557 25.1203 0.613982 24.6114 0.828574L16.3186 4.32555C15.8097 4.54014 15.5711 5.12664 15.7857 5.63553C16.0003 6.14442 16.5868 6.383 17.0957 6.16841L24.4671 3.05998L27.5756 10.4314C27.7901 10.9403 28.3766 11.1789 28.8855 10.9643C29.3944 10.7497 29.633 10.1632 29.4184 9.65428L25.9214 1.36145ZM1.9263 61.1268L25.9263 2.1268L24.0737 1.3732L0.0737046 60.3732L1.9263 61.1268Z" fill="currentColor"/>
</svg>
