<svg viewBox="0 0 32 296" fill="none" xmlns="http://www.w3.org/2000/svg">
<path d="M0.212911 178.007C-0.12776 178.442 -0.051537 179.07 0.38316 179.411C0.817857 179.752 1.44642 179.676 1.78709 179.241L0.212911 178.007ZM25.9927 147.88C25.9262 147.331 25.4279 146.941 24.8796 147.007L15.9451 148.091C15.3968 148.157 15.0062 148.656 15.0727 149.204C15.1392 149.752 15.6376 150.143 16.1858 150.076L24.1277 149.113L25.0907 157.055C25.1572 157.603 25.6556 157.994 26.2038 157.927C26.7521 157.861 27.1427 157.362 27.0762 156.814L25.9927 147.88ZM1.78709 179.241L25.7871 148.617L24.2129 147.383L0.212911 178.007L1.78709 179.241Z" fill="currentColor"/>
<path d="M0.00906211 178.49C-0.0651216 179.037 0.318399 179.541 0.865679 179.615C1.41296 179.689 1.91675 179.306 1.99094 178.758L0.00906211 178.49ZM25.7957 0.961657C25.4611 0.522216 24.8337 0.437169 24.3943 0.771698L17.2332 6.22317C16.7937 6.5577 16.7087 7.18513 17.0432 7.62457C17.3777 8.06401 18.0052 8.14906 18.4446 7.81453L24.81 2.96877L29.6558 9.3342C29.9903 9.77364 30.6178 9.85869 31.0572 9.52416C31.4966 9.18963 31.5817 8.56221 31.2472 8.12276L25.7957 0.961657ZM1.99094 178.758L25.9909 1.7017L24.0091 1.43306L0.00906211 178.49L1.99094 178.758Z" fill="currentColor"/>
<path d="M1.97919 178.421C1.86712 177.88 1.33787 177.533 0.797073 177.645C0.256279 177.757 -0.0912673 178.286 0.020806 178.827L1.97919 178.421ZM24.4511 295.269C24.9127 295.572 25.5327 295.443 25.8359 294.982L30.776 287.459C31.0792 286.997 30.9507 286.377 30.489 286.074C30.0274 285.771 29.4074 285.899 29.1042 286.361L24.713 293.048L18.0259 288.657C17.5643 288.353 16.9443 288.482 16.6411 288.944C16.338 289.405 16.4665 290.025 16.9281 290.328L24.4511 295.269ZM0.020806 178.827L24.0208 294.636L25.9792 294.23L1.97919 178.421L0.020806 178.827Z" fill="currentColor"/>
<path d="M1.88397 178.156C1.62575 177.668 1.02066 177.482 0.532456 177.74C0.0442528 177.998 -0.142187 178.603 0.11603 179.092L1.88397 178.156ZM24.7055 224.956C25.2333 225.118 25.793 224.822 25.9557 224.294L28.6058 215.693C28.7684 215.166 28.4724 214.606 27.9446 214.443C27.4168 214.281 26.8571 214.577 26.6945 215.105L24.3388 222.75L16.6935 220.394C16.1657 220.232 15.606 220.528 15.4434 221.055C15.2807 221.583 15.5768 222.143 16.1046 222.306L24.7055 224.956ZM0.11603 179.092L24.116 224.468L25.884 223.532L1.88397 178.156L0.11603 179.092Z" fill="currentColor"/>
<path d="M0.0262731 178.396C-0.0994926 178.934 0.234506 179.472 0.772281 179.598C1.31006 179.724 1.84796 179.39 1.97373 178.852L0.0262731 178.396ZM25.8496 75.4725C25.5582 75.0033 24.9417 74.8591 24.4725 75.1504L16.8265 79.898C16.3573 80.1893 16.2132 80.8059 16.5045 81.2751C16.7958 81.7443 17.4124 81.8884 17.8816 81.5971L24.678 77.3771L28.898 84.1735C29.1893 84.6427 29.8059 84.7868 30.2751 84.4955C30.7443 84.2042 30.8885 83.5876 30.5971 83.1184L25.8496 75.4725ZM1.97373 178.852L25.9737 76.2277L24.0263 75.7723L0.0262731 178.396L1.97373 178.852Z" fill="currentColor"/>
</svg>
