<svg viewBox="0 0 90 16" fill="none" xmlns="http://www.w3.org/2000/svg">
<path d="M1 7C0.447715 7 4.82823e-08 7.44772 0 8C-4.82823e-08 8.55228 0.447715 9 1 9L1 7ZM89.7071 8.70711C90.0976 8.31659 90.0976 7.68343 89.7071 7.2929L83.3431 0.928939C82.9526 0.538415 82.3195 0.538415 81.9289 0.928939C81.5384 1.31946 81.5384 1.95263 81.9289 2.34315L87.5858 8.00001L81.9289 13.6569C81.5384 14.0474 81.5384 14.6806 81.9289 15.0711C82.3195 15.4616 82.9526 15.4616 83.3431 15.0711L89.7071 8.70711ZM1 9L89 9.00001L89 7.00001L1 7L1 9Z" fill="currentColor"/>
</svg>
