<svg viewBox="0 0 33 8" fill="none" xmlns="http://www.w3.org/2000/svg">
<path d="M4.5 6.96387L5.63379 5H0.5V3H6.78809L8.5 0.0356445L10.2324 1.03564L9.09863 3H12.7881L14.5 0.0356445L16.2324 1.03564L15.0986 3H18.7881L20.5 0.0356445L22.2324 1.03564L21.0986 3H24.7881L26.5 0.0356445L28.2324 1.03564L27.0986 3H32.5V5H25.9434L24.2324 7.96387L22.5 6.96387L23.6338 5H19.9434L18.2324 7.96387L16.5 6.96387L17.6338 5H13.9434L12.2324 7.96387L10.5 6.96387L11.6338 5H7.94336L6.23242 7.96387L4.5 6.96387Z" fill="currentColor"/>
</svg>
