<svg  viewBox="0 0 116 116" fill="none" xmlns="http://www.w3.org/2000/svg">
<path d="M76.9444 58C75.5742 58 74.26 57.4557 73.2911 56.4867C72.3221 55.5178 71.7778 54.2036 71.7778 52.8333C71.7778 51.463 72.3221 50.1489 73.2911 49.1799C74.26 48.211 75.5742 47.6667 76.9444 47.6667C78.3147 47.6667 79.6289 48.211 80.5978 49.1799C81.5668 50.1489 82.1111 51.463 82.1111 52.8333C82.1111 54.2036 81.5668 55.5178 80.5978 56.4867C79.6289 57.4557 78.3147 58 76.9444 58ZM66.6111 44.2222C65.2408 44.2222 63.9267 43.6779 62.9577 42.7089C61.9888 41.74 61.4444 40.4258 61.4444 39.0556C61.4444 37.6853 61.9888 36.3711 62.9577 35.4022C63.9267 34.4332 65.2408 33.8889 66.6111 33.8889C67.9814 33.8889 69.2956 34.4332 70.2645 35.4022C71.2334 36.3711 71.7778 37.6853 71.7778 39.0556C71.7778 40.4258 71.2334 41.74 70.2645 42.7089C69.2956 43.6779 67.9814 44.2222 66.6111 44.2222ZM49.3889 44.2222C48.0186 44.2222 46.7044 43.6779 45.7355 42.7089C44.7666 41.74 44.2222 40.4258 44.2222 39.0556C44.2222 37.6853 44.7666 36.3711 45.7355 35.4022C46.7044 34.4332 48.0186 33.8889 49.3889 33.8889C50.7592 33.8889 52.0733 34.4332 53.0423 35.4022C54.0112 36.3711 54.5556 37.6853 54.5556 39.0556C54.5556 40.4258 54.0112 41.74 53.0423 42.7089C52.0733 43.6779 50.7592 44.2222 49.3889 44.2222ZM39.0556 58C37.6853 58 36.3711 57.4557 35.4022 56.4867C34.4332 55.5178 33.8889 54.2036 33.8889 52.8333C33.8889 51.463 34.4332 50.1489 35.4022 49.1799C36.3711 48.211 37.6853 47.6667 39.0556 47.6667C40.4258 47.6667 41.74 48.211 42.7089 49.1799C43.6779 50.1489 44.2222 51.463 44.2222 52.8333C44.2222 54.2036 43.6779 55.5178 42.7089 56.4867C41.74 57.4557 40.4258 58 39.0556 58ZM58 27C49.7783 27 41.8933 30.2661 36.0797 36.0797C30.2661 41.8933 27 49.7783 27 58C27 66.2217 30.2661 74.1067 36.0797 79.9203C41.8933 85.7339 49.7783 89 58 89C59.3703 89 60.6844 88.4557 61.6534 87.4867C62.6223 86.5178 63.1667 85.2036 63.1667 83.8333C63.1667 82.49 62.65 81.2844 61.8233 80.3889C61.0311 79.4589 60.5144 78.2533 60.5144 76.9444C60.5144 75.5742 61.0588 74.26 62.0277 73.2911C62.9967 72.3221 64.3108 71.7778 65.6811 71.7778H71.7778C76.3454 71.7778 80.7259 69.9633 83.9557 66.7335C87.1855 63.5037 89 59.1232 89 54.5556C89 39.3311 75.1189 27 58 27Z" fill="white"/>
</svg>
