<svg viewBox="0 0 72 72" fill="none" xmlns="http://www.w3.org/2000/svg">
<g id="TargetLogo">
<path id="Vector" d="M64.6632 19.1125C64.7997 19.4413 64.8356 19.8032 64.7664 20.1525C64.6972 20.5017 64.526 20.8226 64.2744 21.0745L57.0744 28.2745C56.9069 28.4416 56.7082 28.574 56.4895 28.6641C56.2709 28.7543 56.0365 28.8005 55.8 28.8001H45.7452L40.8744 33.6709C41.4235 34.8204 41.5485 36.1269 41.2273 37.3597C40.9062 38.5924 40.1596 39.6719 39.1196 40.4074C38.0795 41.1429 36.8129 41.487 35.5436 41.3789C34.2743 41.2708 33.0841 40.7175 32.1834 39.8168C31.2826 38.916 30.7293 37.7258 30.6212 36.4565C30.5131 35.1873 30.8573 33.9207 31.5927 32.8806C32.3282 31.8405 33.4077 31.0939 34.6405 30.7728C35.8732 30.4516 37.1797 30.5767 38.3292 31.1257L43.2 26.2549V16.2001C43.1996 15.9636 43.2458 15.7293 43.336 15.5106C43.4262 15.2919 43.5586 15.0932 43.7256 14.9257L50.9256 7.72571C51.1774 7.47333 51.4984 7.30137 51.848 7.23165C52.1976 7.16193 52.56 7.19758 52.8893 7.33409C53.2186 7.47059 53.4999 7.7018 53.6977 7.9984C53.8954 8.295 54.0006 8.64364 54 9.00011V18.0001H63C63.3562 18.0002 63.7044 18.1059 64.0004 18.3039C64.2965 18.5019 64.5271 18.7833 64.6632 19.1125ZM58.6548 21.6001H52.2C51.7226 21.6001 51.2648 21.4105 50.9272 21.0729C50.5897 20.7353 50.4 20.2775 50.4 19.8001V13.3453L46.8 16.9453V25.2001H55.0548L58.6548 21.6001ZM63.3852 27.0541C64.3032 29.8693 64.8 32.8789 64.8 36.0001C64.7987 42.0839 62.8708 48.011 59.2929 52.9314C55.715 57.8519 50.6708 61.5129 44.8837 63.3895C39.0965 65.2661 32.8638 65.2619 27.0792 63.3774C21.2947 61.493 16.2554 57.8251 12.6842 52.8998C9.11292 47.9745 7.1931 42.0448 7.20003 35.9611C7.20696 29.8773 9.14027 23.952 12.7227 19.0348C16.3052 14.1177 21.3528 10.4613 27.1416 8.59004C32.9304 6.71877 39.1632 6.72874 44.946 8.61851L42.0372 11.5273C36.6933 10.2097 31.065 10.6778 26.0123 12.8602C20.9595 15.0426 16.7602 18.8192 14.0559 23.6129C11.3517 28.4067 10.2912 33.954 11.0366 39.4072C11.7819 44.8604 14.2921 49.9197 18.1836 53.8119C22.0751 57.7041 27.1338 60.2153 32.5869 60.9617C38.0399 61.7081 43.5874 60.6488 48.3817 57.9454C53.176 55.2421 56.9534 51.0435 59.1368 45.9912C61.3201 40.9389 61.7894 35.3106 60.4728 29.9665L63.3852 27.0541ZM53.64 32.4001C54.4132 36.1911 53.9442 40.1304 52.3027 43.634C50.6611 47.1376 47.9344 50.019 44.5266 51.8511C41.1188 53.6832 37.2113 54.3685 33.3834 53.8054C29.5556 53.2423 26.011 51.4608 23.2751 48.725C20.5393 45.9891 18.7578 42.4446 18.1947 38.6167C17.6316 34.7888 18.3169 30.8814 20.149 27.4736C21.9812 24.0658 24.8626 21.339 28.3661 19.6974C31.8697 18.0559 35.809 17.587 39.6 18.3601V22.0537C36.5417 21.2647 33.3088 21.5031 30.3993 22.7322C27.4899 23.9613 25.0652 26.1128 23.4987 28.8554C21.9323 31.5981 21.311 34.7796 21.7305 37.9101C22.1501 41.0405 23.5872 43.9462 25.8206 46.1795C28.0539 48.4129 30.9596 49.85 34.0901 50.2696C37.2205 50.6891 40.4021 50.0679 43.1447 48.5014C45.8873 46.935 48.0388 44.5103 49.2679 41.6008C50.497 38.6913 50.7354 35.4584 49.9464 32.4001H53.64Z" fill="currentColor"/>
</g>
</svg>
