<svg viewBox="0 0 71 62" fill="none" xmlns="http://www.w3.org/2000/svg">
<g id="Group 57">
<path id="Vector" d="M50.4486 60.704V56.848C50.4486 54.8026 49.6361 52.8411 48.1898 51.3948C46.7435 49.9485 44.782 49.136 42.7366 49.136H40.8086C40.2973 49.136 39.8069 48.9329 39.4453 48.5713C39.0837 48.2097 38.8806 47.7193 38.8806 47.208V37.568C38.8806 36.5453 38.4743 35.5645 37.7512 34.8414C37.0281 34.1183 36.0473 33.712 35.0246 33.712C34.0019 33.712 33.0211 34.1183 32.298 34.8414C31.5749 35.5645 31.1686 36.5453 31.1686 37.568V54.92L26.5414 48.7504C26.1822 48.2715 25.7165 47.8828 25.1811 47.6151C24.6456 47.3474 24.0552 47.208 23.4566 47.208H22.6198C20.9521 47.208 19.6006 48.5595 19.6006 50.2272C19.6006 50.7748 19.7491 51.3127 20.0305 51.7812L25.3846 60.704M35.0246 27.928V26M46.5926 39.496H48.5206M21.5286 39.496H23.4566M26.0459 30.5173L24.6828 29.1542M44.0033 30.5173L45.3664 29.1542" stroke="currentColor" stroke-width="2.4" stroke-linecap="round" stroke-linejoin="round"/>
<g id="Group">
<path id="Vector_2" d="M31.9998 10.3999L35.5998 13.9999L45.1998 4.3999" stroke="currentColor" stroke-width="2.4" stroke-linecap="round" stroke-linejoin="round"/>
<path id="Vector_3" d="M45.1998 11.6V18.8C45.1998 19.4365 44.947 20.047 44.4969 20.4971C44.0468 20.9471 43.4363 21.2 42.7998 21.2H28.3998C27.7633 21.2 27.1528 20.9471 26.7028 20.4971C26.2527 20.047 25.9998 19.4365 25.9998 18.8V4.4C25.9998 3.76348 26.2527 3.15303 26.7028 2.70294C27.1528 2.25286 27.7633 2 28.3998 2H39.1998" stroke="currentColor" stroke-width="2.4" stroke-linecap="round" stroke-linejoin="round"/>
</g>
<g id="X">
<path id="Vector_4" d="M1.99982 26.8V15.6C1.99982 15.1757 2.16839 14.7687 2.46845 14.4686C2.7685 14.1686 3.17547 14 3.59982 14H14.7998C15.2242 14 15.6311 14.1686 15.9312 14.4686C16.2312 14.7687 16.3998 15.1757 16.3998 15.6V26.8C16.3998 27.2243 16.2312 27.6313 15.9312 27.9314C15.6311 28.2314 15.2242 28.4 14.7998 28.4H3.59982C3.17547 28.4 2.7685 28.2314 2.46845 27.9314C2.16839 27.6313 1.99982 27.2243 1.99982 26.8Z" stroke="currentColor" stroke-width="2.4" stroke-linecap="round" stroke-linejoin="round"/>
<path id="Vector_5" d="M6.60782 18.5L11.8998 23.9M12.0078 18.5L6.49982 23.9" stroke="currentColor" stroke-width="2.4" stroke-linecap="round" stroke-linejoin="round"/>
</g>
<g id="X_2">
<path id="Vector_6" d="M54.8002 26.8V15.6C54.8002 15.1757 54.9688 14.7687 55.2688 14.4686C55.5689 14.1686 55.9759 14 56.4002 14H67.6002C68.0245 14 68.4315 14.1686 68.7316 14.4686C69.0316 14.7687 69.2002 15.1757 69.2002 15.6V26.8C69.2002 27.2243 69.0316 27.6313 68.7316 27.9314C68.4315 28.2314 68.0245 28.4 67.6002 28.4H56.4002C55.9759 28.4 55.5689 28.2314 55.2688 27.9314C54.9688 27.6313 54.8002 27.2243 54.8002 26.8Z" stroke="currentColor" stroke-width="2.4" stroke-linecap="round" stroke-linejoin="round"/>
<path id="Vector_7" d="M59.4082 18.5L64.7002 23.9M64.8082 18.5L59.3002 23.9" stroke="currentColor" stroke-width="2.4" stroke-linecap="round" stroke-linejoin="round"/>
</g>
</g>
</svg>
