<svg viewBox="0 0 55 47" fill="none" xmlns="http://www.w3.org/2000/svg">
<g id="Group 58">
<g id="Vector 2">
<path d="M38.6 32.5C38.6 32.5 33.6036 25.3724 29.7593 22.5C28.5657 23.7418 27.4282 24.9042 26.332 26C31.6584 27.7044 38.6 32.5 38.6 32.5Z" fill="currentColor"/>
<path d="M24.8 19.3C18.2 30.1 12.1139 36.4994 2 45.1C12.012 38.8465 17.9652 34.3642 26.332 26C27.4282 24.9042 28.5657 23.7418 29.7593 22.5C28.265 21.3835 26.6184 20.3224 24.8 19.3Z" fill="currentColor"/>
<path d="M10 15.5L18.4999 9.51861C21.4516 7.44145 25.4287 7.59806 28.208 9.90089L37.5403 17.6334C39.6889 19.4137 42.6099 19.9458 45.2483 19.0376L53.2012 16.3M38.6 32.5C33.5 36 27 37.5 22 37.5M38.6 32.5C38.6 32.5 33.6036 25.3724 29.7593 22.5M38.6 32.5C38.6 32.5 31.6584 27.7044 26.332 26M29.7593 22.5C28.265 21.3835 26.6184 20.3224 24.8 19.3C18.2 30.1 12.1139 36.4994 2 45.1C12.012 38.8465 17.9652 34.3642 26.332 26M29.7593 22.5C28.5657 23.7418 27.4282 24.9042 26.332 26" stroke="currentColor" stroke-width="3" stroke-linecap="round" stroke-linejoin="round"/>
</g>
<circle id="Ellipse 13" cx="41.001" cy="5" r="5" fill="currentColor"/>
</g>
</svg>
