<svg viewBox="0 0 72 72" fill="none" xmlns="http://www.w3.org/2000/svg">
<g clip-path="url(#clip0_2914_782)">
<path d="M23.927 25.5C21.481 28.31 20 31.982 20 36C20 38.5103 20.5781 40.8856 21.6085 43M23.927 25.5L25 28M23.927 25.5H21M48.073 25.5C50.519 28.31 52 31.982 52 36C52 38.5103 51.4219 40.8856 50.3915 43M50.3915 43H53M50.3915 43L49 40.5" stroke="currentColor" stroke-width="2" stroke-linecap="round" stroke-linejoin="round"/>
<path d="M24 15.2107C16.8264 19.3604 12 27.1165 12 35.9999C12 39.1826 12.6195 42.2206 13.7446 44.9999M48 15.2107C55.1736 19.3604 60 27.1165 60 35.9999C60 39.1826 59.3805 42.2206 58.2554 44.9999M26.5 58.0463C29.4134 59.3034 32.6254 59.9999 36 59.9999C39.3746 59.9999 42.5866 59.3034 45.5 58.0463" stroke="currentColor" stroke-width="2" stroke-linecap="round"/>
<path d="M33.142 46C31.488 45.4862 29.9901 44.5357 28.794 43.2409C29.1788 42.7661 29.4187 42.1826 29.483 41.565C29.5473 40.9475 29.433 40.3241 29.1547 39.7746C28.8765 39.225 28.447 38.7743 27.9211 38.4802C27.3953 38.186 26.7971 38.0618 26.203 38.1234C26.0677 37.4337 25.9996 36.7315 26 36.0276C26 34.9404 26.16 33.8917 26.458 32.9065H26.5C27.0099 32.9066 27.5114 32.7716 27.9572 32.5141C28.403 32.2566 28.7783 31.8852 29.0478 31.4349C29.3172 30.9845 29.4719 30.4702 29.4973 29.9404C29.5226 29.4106 29.4177 28.8828 29.1925 28.4069C30.3648 27.2712 31.7825 26.4457 33.326 26C33.5772 26.5131 33.9599 26.9439 34.4319 27.2448C34.9038 27.5456 35.4465 27.7048 36 27.7046C36.5535 27.7048 37.0962 27.5456 37.5681 27.2448C38.0401 26.9439 38.4228 26.5131 38.674 26C40.2175 26.4457 41.6352 27.2712 42.8075 28.4069C42.5807 28.8861 42.4759 29.4179 42.5031 29.9514C42.5304 30.4848 42.6888 31.0021 42.9632 31.4536C43.2376 31.9051 43.6188 32.2758 44.0703 32.5302C44.5219 32.7846 45.0286 32.9141 45.542 32.9065C45.8465 33.9165 46.0009 34.969 46 36.0276C46 36.7454 45.93 37.4466 45.797 38.1239C45.2029 38.0623 44.6047 38.1866 44.0789 38.4807C43.553 38.7749 43.1235 39.2255 42.8453 39.7751C42.567 40.3246 42.4527 40.9481 42.517 41.5656C42.5813 42.1831 42.8212 42.7666 43.206 43.2415C42.0099 44.536 40.5119 45.4864 38.858 46C38.6638 45.3702 38.2824 44.8208 37.7687 44.4311C37.2551 44.0413 36.6357 43.8313 36 43.8313C35.3643 43.8313 34.7449 44.0413 34.2313 44.4311C33.7176 44.8208 33.3362 45.3702 33.142 46Z" stroke="currentColor" stroke-width="2" stroke-linejoin="round"/>
<path d="M36 40C36.5253 40 37.0454 39.8965 37.5307 39.6955C38.016 39.4945 38.457 39.1999 38.8284 38.8284C39.1999 38.457 39.4945 38.016 39.6955 37.5307C39.8965 37.0454 40 36.5253 40 36C40 35.4747 39.8965 34.9546 39.6955 34.4693C39.4945 33.984 39.1999 33.543 38.8284 33.1716C38.457 32.8001 38.016 32.5055 37.5307 32.3045C37.0454 32.1035 36.5253 32 36 32C34.9391 32 33.9217 32.4214 33.1716 33.1716C32.4214 33.9217 32 34.9391 32 36C32 37.0609 32.4214 38.0783 33.1716 38.8284C33.9217 39.5786 34.9391 40 36 40Z" stroke="currentColor" stroke-width="2" stroke-linejoin="round"/>
<path d="M27 14V8.4C27 8.17909 27.1791 8 27.4 8H34M27 14V19.6C27 19.8209 27.1791 20 27.4 20H34M27 14H34M45 14V8.4C45 8.17909 44.8209 8 44.6 8H34M45 14V19.6C45 19.8209 44.8209 20 44.6 20H34M45 14H34M34 8V14M34 14V20M29.5 11H31.5M29.5 17H31.5M37.5 11H41.5M37.5 17H41.5" stroke="currentColor" stroke-width="1.6" stroke-linecap="round" stroke-linejoin="round"/>
<path d="M6 54V48.4C6 48.1791 6.17909 48 6.4 48H13M6 54V59.6C6 59.8209 6.17909 60 6.4 60H13M6 54H13M24 54V48.4C24 48.1791 23.8209 48 23.6 48H13M24 54V59.6C24 59.8209 23.8209 60 23.6 60H13M24 54H13M13 48V54M13 54V60M8.5 51H10.5M8.5 57H10.5M16.5 51H20.5M16.5 57H20.5" stroke="currentColor" stroke-width="1.6" stroke-linecap="round" stroke-linejoin="round"/>
<path d="M48 54V48.4C48 48.1791 48.1791 48 48.4 48H55M48 54V59.6C48 59.8209 48.1791 60 48.4 60H55M48 54H55M66 54V48.4C66 48.1791 65.8209 48 65.6 48H55M66 54V59.6C66 59.8209 65.8209 60 65.6 60H55M66 54H55M55 48V54M55 54V60M50.5 51H52.5M50.5 57H52.5M58.5 51H62.5M58.5 57H62.5" stroke="currentColor" stroke-width="1.6" stroke-linecap="round" stroke-linejoin="round"/>
</g>
<defs>
<clipPath id="clip0_2914_782">
<rect width="72" height="72" fill="currentColor"/>
</clipPath>
</defs>
</svg>
