<svg viewBox="0 0 72 72" fill="none" xmlns="http://www.w3.org/2000/svg">
<g id="control new">
<path id="Union" fill-rule="evenodd" clip-rule="evenodd" d="M26.875 21.375C26.875 16.0593 31.1843 11.75 36.5 11.75C41.8157 11.75 46.125 16.0593 46.125 21.375C46.125 26.6907 41.8157 31 36.5 31C31.1843 31 26.875 26.6907 26.875 21.375ZM36.5 9C29.6655 9 24.125 14.5405 24.125 21.375C24.125 28.2095 29.6655 33.75 36.5 33.75C43.3345 33.75 48.875 28.2095 48.875 21.375C48.875 14.5405 43.3345 9 36.5 9ZM43.375 37.875C40.4707 37.875 38 40.3645 38 43.8682C38 45.9838 38.8632 48.007 40.6297 50.3626C42.4157 52.7441 44.9958 55.3015 48.2419 58.5098L48.244 58.5118L49 59.2619L49.756 58.5118L49.7581 58.5098C53.0042 55.3015 55.5843 52.7441 57.3703 50.3626C59.1368 48.007 60 45.9838 60 43.8682C60 40.3645 57.5293 37.875 54.625 37.875C52.9536 37.875 51.2848 38.7318 50.1785 40.1368L49 41.6333L47.8215 40.1368C46.7152 38.7318 45.0464 37.875 43.375 37.875ZM35 43.8682C35 42.8221 35.1621 41.8139 35.4635 40.875H26.5C19.0442 40.875 13 46.9192 13 54.375V60.875C13 61.7034 12.3284 62.375 11.5 62.375C10.6716 62.375 10 61.7034 10 60.875V54.375C10 45.2623 17.3873 37.875 26.5 37.875H37.0884C38.5959 36.0399 40.8117 34.875 43.375 34.875C45.4693 34.875 47.4583 35.7005 49 37.0431C50.5417 35.7005 52.5307 34.875 54.625 34.875C59.4207 34.875 63 38.9523 63 43.8682C63 46.8888 61.7382 49.5386 59.7703 52.1626C57.8297 54.7503 55.0803 57.4676 51.9051 60.6058L51.869 60.6414L49 63.4881L46.131 60.6414L46.095 60.6058C42.9197 57.4676 40.1703 54.7503 38.2297 52.1626C36.2618 49.5386 35 46.8888 35 43.8682ZM22.5 51.375C23.3284 51.375 24 52.0466 24 52.875V60.875C24 61.7034 23.3284 62.375 22.5 62.375C21.6716 62.375 21 61.7034 21 60.875V52.875C21 52.0466 21.6716 51.375 22.5 51.375Z" fill="currentColor"/>
</g>
</svg>
