<svg viewBox="0 0 72 72" fill="none" xmlns="http://www.w3.org/2000/svg">
<g id="TargetLogo">
<path id="Union" fill-rule="evenodd" clip-rule="evenodd" d="M33.2012 14.4H23.6012V24H33.2012V14.4ZM23.6012 12C22.2757 12 21.2012 13.0745 21.2012 14.4V24C21.2012 25.3255 22.2757 26.4 23.6012 26.4H27.2012V31.3513C25.1309 31.8842 23.6012 33.7635 23.6012 36.0001C23.6012 38.6511 25.7502 40.8001 28.4012 40.8001C30.6378 40.8001 32.5172 39.2703 33.05 37.2H38.152C38.0533 36.8165 38.0008 36.4144 38.0008 36C38.0008 35.5857 38.0533 35.1836 38.152 34.8H33.0499C32.6158 33.1133 31.2879 31.7854 29.6012 31.3513V26.4H33.2012C34.5267 26.4 35.6012 25.3255 35.6012 24V14.4C35.6012 13.0745 34.5267 12 33.2012 12H23.6012ZM14.0012 38.4001C15.3267 38.4001 16.4012 37.3256 16.4012 36.0001C16.4012 34.6746 15.3267 33.6001 14.0012 33.6001C12.6757 33.6001 11.6012 34.6746 11.6012 36.0001C11.6012 37.3256 12.6757 38.4001 14.0012 38.4001ZM15.2012 40.6489C16.8879 40.2147 18.2159 38.8868 18.65 37.2H23.752C23.6533 36.8165 23.6008 36.4144 23.6008 36C23.6008 35.5857 23.6533 35.1836 23.752 34.8H18.6499C18.117 32.7298 16.2377 31.2001 14.0012 31.2001C11.3502 31.2001 9.20118 33.3491 9.20118 36.0001C9.20118 38.2367 10.7309 40.116 12.8012 40.6489V45.6H9.20117C7.87569 45.6 6.80117 46.6745 6.80117 48V57.6C6.80117 58.9255 7.87569 60 9.20117 60H18.8012C20.1267 60 21.2012 58.9255 21.2012 57.6V48C21.2012 46.6745 20.1267 45.6 18.8012 45.6H15.2012V40.6489ZM56.0012 31.3513V26.4H52.4012C51.0757 26.4 50.0012 25.3255 50.0012 24V14.4C50.0012 13.0745 51.0757 12 52.4012 12H62.0012C63.3267 12 64.4012 13.0745 64.4012 14.4V24C64.4012 25.3255 63.3267 26.4 62.0012 26.4H58.4012V31.3513C60.0879 31.7854 61.4158 33.1133 61.8499 34.8H69.2004V37.2H61.85C61.3172 39.2703 59.4378 40.8001 57.2012 40.8001C54.5502 40.8001 52.4012 38.6511 52.4012 36.0001C52.4012 33.7635 53.9309 31.8842 56.0012 31.3513ZM52.552 37.2H47.45C47.0159 38.8868 45.6879 40.2147 44.0012 40.6489V45.6H47.6012C48.9267 45.6 50.0012 46.6745 50.0012 48V57.6C50.0012 58.9255 48.9267 60 47.6012 60H38.0012C36.6757 60 35.6012 58.9255 35.6012 57.6V48C35.6012 46.6745 36.6757 45.6 38.0012 45.6H41.6012V40.6489C39.5309 40.116 38.0012 38.2367 38.0012 36.0001C38.0012 33.3491 40.1502 31.2001 42.8012 31.2001C45.0377 31.2001 46.917 32.7298 47.4499 34.8H52.552C52.4533 35.1836 52.4008 35.5857 52.4008 36C52.4008 36.4144 52.4533 36.8165 52.552 37.2ZM2.0004 37.2H9.35199C9.25329 36.8165 9.20079 36.4144 9.20079 36C9.20079 35.5857 9.25329 35.1836 9.35202 34.8H2.0004V37.2ZM30.8012 36.0001C30.8012 37.3256 29.7267 38.4001 28.4012 38.4001C27.0757 38.4001 26.0012 37.3256 26.0012 36.0001C26.0012 34.6746 27.0757 33.6001 28.4012 33.6001C29.7267 33.6001 30.8012 34.6746 30.8012 36.0001ZM42.8012 38.4001C44.1267 38.4001 45.2012 37.3256 45.2012 36.0001C45.2012 34.6746 44.1267 33.6001 42.8012 33.6001C41.4757 33.6001 40.4012 34.6746 40.4012 36.0001C40.4012 37.3256 41.4757 38.4001 42.8012 38.4001ZM59.6012 36.0001C59.6012 37.3256 58.5267 38.4001 57.2012 38.4001C55.8757 38.4001 54.8012 37.3256 54.8012 36.0001C54.8012 34.6746 55.8757 33.6001 57.2012 33.6001C58.5267 33.6001 59.6012 34.6746 59.6012 36.0001ZM18.8012 48H9.20117L9.20117 57.6H18.8012V48ZM38.0012 57.6V48H47.6012V57.6H38.0012ZM52.4012 14.4H62.0012V24H52.4012V14.4Z" fill="currentColor"/>
</g>
</svg>
