<svg viewBox="0 0 78 97" fill="none" xmlns="http://www.w3.org/2000/svg">
<path d="M0.5 0C0.223858 0 0 0.223858 0 0.5C0 0.776142 0.223858 1 0.5 1V0ZM30.5 0.5H31C31 0.223858 30.7761 0 30.5 0V0.5ZM0.5 48C0.223858 48 0 48.2239 0 48.5C0 48.7761 0.223858 49 0.5 49V48ZM30.5 96.5V97C30.7761 97 31 96.7761 31 96.5H30.5ZM0.5 96C0.223858 96 0 96.2239 0 96.5C0 96.7761 0.223858 97 0.5 97V96ZM77.5 48.5L72.5 45.6132V51.3868L77.5 48.5ZM0.5 1H30.5V0H0.5V1ZM30 0.5V48.5H31V0.5H30ZM30.5 48H0.5V49H30.5V48ZM30 48.5V96.5H31V48.5H30ZM30.5 96H0.5V97H30.5V96ZM30.5 49H73V48H30.5V49Z" fill="currentColor"/>
</svg>
