<svg viewBox="0 0 42 148" fill="none" xmlns="http://www.w3.org/2000/svg">
<path d="M1 75C0.44772 75 3.8147e-06 74.5523 3.8147e-06 74C3.8147e-06 73.4477 0.44772 73 1 73V75ZM41.7071 73.2929C42.0976 73.6834 42.0976 74.3166 41.7071 74.7071L35.3431 81.0711C34.9526 81.4616 34.3195 81.4616 33.9289 81.0711C33.5384 80.6805 33.5384 80.0474 33.9289 79.6569L39.5858 74L33.9289 68.3431C33.5384 67.9526 33.5384 67.3195 33.9289 66.9289C34.3195 66.5384 34.9526 66.5384 35.3431 66.9289L41.7071 73.2929ZM28.7273 75H1V73H28.7273V75ZM28.7273 73H41V75H28.7273V73Z" fill="currentColor"/>
<path d="M38.7821 86.1739C39.3211 86.0536 39.8556 86.393 39.976 86.932L41.9374 95.7156C42.0577 96.2547 41.7183 96.7892 41.1793 96.9095C40.6403 97.0299 40.1058 96.6905 39.9854 96.1515L38.242 88.3438L30.4343 90.0873C29.8953 90.2076 29.3607 89.8682 29.2404 89.3292C29.12 88.7902 29.4594 88.2557 29.9984 88.1353L38.7821 86.1739ZM1.84421 147.536C1.54818 148.002 0.930237 148.14 0.463993 147.844C-0.00225449 147.548 -0.140244 146.93 0.155788 146.464L1.84421 147.536ZM39.8442 87.6859L1.84421 147.536L0.155788 146.464L38.1558 86.6139L39.8442 87.6859Z" fill="currentColor"/>
<path d="M39.976 61.0679C39.8556 61.6069 39.3211 61.9463 38.7821 61.826L29.9984 59.8646C29.4594 59.7442 29.12 59.2097 29.2404 58.6707C29.3607 58.1317 29.8953 57.7923 30.4343 57.9126L38.242 59.6561L39.9854 51.8484C40.1058 51.3094 40.6403 50.97 41.1793 51.0904C41.7183 51.2107 42.0577 51.7453 41.9374 52.2843L39.976 61.0679ZM0.155788 1.53601C-0.140244 1.06976 -0.00225449 0.451816 0.463993 0.155787C0.930237 -0.140242 1.54818 -0.00225401 1.84421 0.463992L0.155788 1.53601ZM38.1558 61.386L0.155788 1.53601L1.84421 0.463992L39.8442 60.314L38.1558 61.386Z" fill="currentColor"/>
</svg>
