<svg viewBox="0 0 30 30" fill="none" xmlns="http://www.w3.org/2000/svg">
<path d="M13.1406 16.8812C13.1406 16.2406 13.4484 15.2219 15.8391 15.2219C16.5719 15.2219 17.0234 15.275 17.6297 15.4109C17.4359 17.9203 16.2078 18.2516 15.0141 18.2516C14.3609 18.2516 13.1406 17.9109 13.1406 16.8812Z" fill="white"/>
<path d="M6.54688 27.5H23.4531C24.5264 27.5 25.5558 27.0736 26.3147 26.3147C27.0736 25.5558 27.5 24.5264 27.5 23.4531V6.54688C27.5 5.47358 27.0736 4.44424 26.3147 3.6853C25.5558 2.92637 24.5264 2.5 23.4531 2.5L6.54688 2.5C5.47358 2.5 4.44424 2.92637 3.6853 3.6853C2.92637 4.44424 2.5 5.47358 2.5 6.54688L2.5 23.4531C2.5 24.5264 2.92637 25.5558 3.6853 26.3147C4.44424 27.0736 5.47358 27.5 6.54688 27.5ZM11.6656 11.7344C12.5516 10.4687 13.7203 9.975 15.3375 9.975C16.4781 9.975 17.4484 10.3594 18.1422 11.0859C18.8344 11.8141 19.2297 12.8547 19.3203 14.1844C19.7031 14.3453 20.0578 14.5344 20.3797 14.7516C21.6797 15.625 22.3953 16.9313 22.3953 18.4281C22.3953 21.6109 19.7859 24.375 15.0641 24.375C11.0094 24.375 6.79688 22.0156 6.79688 14.9937C6.79688 8.00938 10.8766 5.625 15.0516 5.625C16.9797 5.625 21.5031 5.90937 23.2031 11.5266L21.6094 11.9391C20.2937 7.93906 17.5359 7.30156 15.0094 7.30156C10.8297 7.30156 8.46719 9.84531 8.46719 15.2594C8.46719 20.1141 11.1078 22.6922 15.0641 22.6922C18.3188 22.6922 20.7453 21.0016 20.7453 18.525C20.7453 16.8391 19.3297 16.0328 19.2563 16.0328C18.9797 17.4781 18.2391 19.9109 14.9859 19.9109C13.0906 19.9109 11.4547 18.6016 11.4547 16.8859C11.4547 14.4359 13.7797 13.5484 15.6156 13.5484C16.3031 13.5484 17.1312 13.5953 17.5641 13.6828C17.5641 12.9359 16.9328 11.6578 15.3359 11.6578C13.9125 11.6578 13.5234 12.1078 13.0703 12.6328L13.0328 12.675C12.7172 12.4641 11.6656 11.7344 11.6656 11.7344Z" fill="white"/>
</svg>
