<svg viewBox="0 0 30 30" fill="none" xmlns="http://www.w3.org/2000/svg">
<path fill-rule="evenodd" clip-rule="evenodd" d="M15 27.5C21.9036 27.5 27.5 21.9036 27.5 15C27.5 8.09644 21.9036 2.5 15 2.5C8.09644 2.5 2.5 8.09644 2.5 15C2.5 21.9036 8.09644 27.5 15 27.5ZM8.82149 11.1785C8.50893 10.866 8.33333 10.442 8.33333 10C8.33333 9.55797 8.50893 9.13405 8.82149 8.82149C9.13405 8.50893 9.55797 8.33333 10 8.33333C10.442 8.33333 10.866 8.50893 11.1785 8.82149C11.4911 9.13405 11.6667 9.55797 11.6667 10C11.6667 10.442 11.4911 10.866 11.1785 11.1785C10.866 11.4911 10.442 11.6667 10 11.6667C9.55797 11.6667 9.13405 11.4911 8.82149 11.1785ZM13.8215 21.1785C13.5089 20.8659 13.3333 20.442 13.3333 20C13.3333 19.558 13.5089 19.134 13.8215 18.8215C14.134 18.5089 14.558 18.3333 15 18.3333C15.442 18.3333 15.866 18.5089 16.1785 18.8215C16.4911 19.134 16.6667 19.558 16.6667 20C16.6667 20.442 16.4911 20.8659 16.1785 21.1785C15.866 21.4911 15.442 21.6667 15 21.6667C14.558 21.6667 14.134 21.4911 13.8215 21.1785ZM13.8215 16.1785C13.5089 15.866 13.3333 15.442 13.3333 15C13.3333 14.558 13.5089 14.134 13.8215 13.8215C14.134 13.5089 14.558 13.3333 15 13.3333C15.442 13.3333 15.866 13.5089 16.1785 13.8215C16.4911 14.134 16.6667 14.558 16.6667 15C16.6667 15.442 16.4911 15.866 16.1785 16.1785C15.866 16.4911 15.442 16.6667 15 16.6667C14.558 16.6667 14.134 16.4911 13.8215 16.1785ZM13.8215 11.1785C13.5089 10.866 13.3333 10.442 13.3333 10C13.3333 9.55797 13.5089 9.13405 13.8215 8.82149C14.134 8.50893 14.558 8.33333 15 8.33333C15.442 8.33333 15.866 8.50893 16.1785 8.82149C16.4911 9.13405 16.6667 9.55797 16.6667 10C16.6667 10.442 16.4911 10.866 16.1785 11.1785C15.866 11.4911 15.442 11.6667 15 11.6667C14.558 11.6667 14.134 11.4911 13.8215 11.1785ZM18.8215 11.1785C18.5089 10.866 18.3333 10.442 18.3333 10C18.3333 9.55797 18.5089 9.13405 18.8215 8.82149C19.134 8.50893 19.558 8.33333 20 8.33333C20.442 8.33333 20.8659 8.50893 21.1785 8.82149C21.4911 9.13405 21.6667 9.55797 21.6667 10C21.6667 10.442 21.4911 10.866 21.1785 11.1785C20.8659 11.4911 20.442 11.6667 20 11.6667C19.558 11.6667 19.134 11.4911 18.8215 11.1785Z" fill="white"/>
</svg>
