<svg viewBox="0 0 176 49" fill="none" xmlns="http://www.w3.org/2000/svg">
<path d="M0.990109 37V36.244L1.71011 35.992C2.14211 35.872 2.44211 35.668 2.61011 35.38C2.77811 35.068 2.87411 34.648 2.89811 34.12V16.012C2.87411 15.508 2.79011 15.124 2.64611 14.86C2.50211 14.572 2.20211 14.356 1.74611 14.212L0.990109 13.96V13.204H18.1261L18.3781 18.964H17.3701L15.9301 15.724C15.7381 15.268 15.5221 14.92 15.2821 14.68C15.0421 14.416 14.6821 14.284 14.2021 14.284H8.08211C8.05811 15.772 8.04611 17.308 8.04611 18.892C8.04611 20.452 8.04611 22.216 8.04611 24.184H11.6101C12.0901 24.184 12.4501 24.064 12.6901 23.824C12.9541 23.56 13.1941 23.212 13.4101 22.78L14.0221 21.412H14.8141V28.072H14.0221L13.3741 26.704C13.1821 26.272 12.9661 25.924 12.7261 25.66C12.4861 25.396 12.1261 25.264 11.6461 25.264H8.04611C8.04611 26.992 8.04611 28.48 8.04611 29.728C8.04611 30.976 8.04611 32.092 8.04611 33.076C8.07011 34.036 8.08211 34.984 8.08211 35.92H14.9941C15.4741 35.92 15.8461 35.8 16.1101 35.56C16.3741 35.296 16.5901 34.936 16.7581 34.48L18.0901 31.24H19.0981L18.8461 37H0.990109ZM29.6759 37.504C27.8999 37.504 26.3399 37.132 24.9959 36.388C23.6759 35.644 22.6439 34.588 21.8999 33.22C21.1799 31.852 20.8199 30.22 20.8199 28.324C20.8199 26.428 21.2039 24.796 21.9719 23.428C22.7639 22.06 23.8199 21.016 25.1399 20.296C26.4839 19.552 27.9959 19.18 29.6759 19.18C31.3559 19.18 32.8559 19.552 34.1759 20.296C35.5199 21.016 36.5759 22.06 37.3439 23.428C38.1359 24.772 38.5319 26.404 38.5319 28.324C38.5319 30.22 38.1599 31.864 37.4159 33.256C36.6959 34.624 35.6759 35.68 34.3559 36.424C33.0359 37.144 31.4759 37.504 29.6759 37.504ZM29.6759 36.496C30.5399 36.496 31.2359 36.268 31.7639 35.812C32.3159 35.332 32.7119 34.504 32.9519 33.328C33.1919 32.152 33.3119 30.508 33.3119 28.396C33.3119 26.26 33.1919 24.604 32.9519 23.428C32.7119 22.228 32.3159 21.4 31.7639 20.944C31.2359 20.464 30.5399 20.224 29.6759 20.224C28.8119 20.224 28.1159 20.464 27.5879 20.944C27.0599 21.4 26.6639 22.228 26.3999 23.428C26.1599 24.604 26.0399 26.26 26.0399 28.396C26.0399 30.508 26.1599 32.152 26.3999 33.328C26.6639 34.504 27.0599 35.332 27.5879 35.812C28.1159 36.268 28.8119 36.496 29.6759 36.496ZM39.5565 37V36.244L40.2765 36.064C40.7565 35.92 41.0685 35.704 41.2125 35.416C41.3565 35.128 41.4285 34.732 41.4285 34.228C41.4525 32.86 41.4645 31.48 41.4645 30.088C41.4645 28.672 41.4645 27.256 41.4645 25.84V24.364C41.4645 22.972 41.4645 21.58 41.4645 20.188C41.4645 18.796 41.4525 17.404 41.4285 16.012C41.4285 15.508 41.3445 15.124 41.1765 14.86C41.0325 14.572 40.7205 14.344 40.2405 14.176L39.5565 13.96V13.204H48.2325C51.7365 13.204 54.2805 13.864 55.8645 15.184C57.4725 16.48 58.2765 18.196 58.2765 20.332C58.2765 21.676 57.9405 22.924 57.2685 24.076C56.6205 25.204 55.5405 26.104 54.0285 26.776C52.5165 27.448 50.4765 27.784 47.9085 27.784H46.6125C46.6125 28.792 46.6125 29.836 46.6125 30.916C46.6125 31.972 46.6245 33.052 46.6485 34.156C46.6485 35.14 47.0925 35.74 47.9805 35.956L49.0605 36.244V37H39.5565ZM46.6125 26.74H48.1245C49.3245 26.74 50.2965 26.56 51.0405 26.2C51.8085 25.816 52.3725 25.168 52.7325 24.256C53.1165 23.344 53.3085 22.084 53.3085 20.476C53.3085 18.868 53.1045 17.62 52.6965 16.732C52.3125 15.82 51.7245 15.184 50.9325 14.824C50.1405 14.44 49.1565 14.248 47.9805 14.248H46.6485C46.6245 15.904 46.6125 17.584 46.6125 19.288C46.6125 20.968 46.6125 22.66 46.6125 24.364V26.74ZM67.6464 37V36.244L68.3664 36.028C68.8464 35.86 69.1584 35.644 69.3024 35.38C69.4704 35.092 69.5544 34.696 69.5544 34.192V16.012C69.5544 15.508 69.4704 15.124 69.3024 14.86C69.1584 14.572 68.8464 14.344 68.3664 14.176L67.6464 13.96V13.204H76.6464V13.96L75.9264 14.176C75.4704 14.344 75.1584 14.572 74.9904 14.86C74.8224 15.124 74.7384 15.508 74.7384 16.012V34.192C74.7384 34.696 74.8224 35.092 74.9904 35.38C75.1584 35.644 75.4704 35.86 75.9264 36.028L76.6464 36.244V37H67.6464ZM78.2267 37V36.316L78.8027 36.172C79.5947 35.932 79.9907 35.344 79.9907 34.408V23.788C79.9667 23.284 79.8827 22.9 79.7387 22.636C79.5947 22.348 79.2827 22.156 78.8027 22.06L78.2267 21.916V21.268L84.0587 19.18L84.4907 19.576L84.7427 21.808C85.6067 21.04 86.5667 20.416 87.6227 19.936C88.7027 19.432 89.7587 19.18 90.7907 19.18C92.3747 19.18 93.5867 19.612 94.4267 20.476C95.2907 21.34 95.7227 22.66 95.7227 24.436V34.444C95.7227 35.38 96.1547 35.968 97.0187 36.208L97.4147 36.316V37H89.1347V36.316L89.6747 36.172C90.4667 35.908 90.8627 35.32 90.8627 34.408V23.716C90.8627 22.876 90.6827 22.264 90.3227 21.88C89.9627 21.496 89.3627 21.304 88.5227 21.304C87.3467 21.304 86.1227 21.82 84.8507 22.852V34.444C84.8507 35.38 85.2707 35.968 86.1107 36.208L86.4707 36.316V37H78.2267ZM105.127 37.504C103.975 37.504 102.931 37.372 101.995 37.108C101.083 36.868 100.207 36.52 99.3666 36.064V31.816H100.339L101.419 33.868C101.875 34.756 102.391 35.416 102.967 35.848C103.567 36.28 104.323 36.496 105.235 36.496C106.363 36.496 107.263 36.256 107.935 35.776C108.607 35.272 108.943 34.6 108.943 33.76C108.943 32.992 108.691 32.368 108.187 31.888C107.683 31.408 106.783 30.964 105.487 30.556L103.903 30.052C102.487 29.62 101.359 28.972 100.519 28.108C99.7026 27.22 99.2946 26.116 99.2946 24.796C99.2946 23.764 99.5706 22.828 100.123 21.988C100.675 21.124 101.479 20.44 102.535 19.936C103.591 19.432 104.875 19.18 106.387 19.18C107.371 19.18 108.271 19.3 109.087 19.54C109.927 19.756 110.743 20.068 111.535 20.476L111.319 24.328H110.383L109.267 22.276C108.883 21.508 108.487 20.98 108.079 20.692C107.695 20.38 107.095 20.224 106.279 20.224C105.415 20.224 104.647 20.452 103.975 20.908C103.327 21.34 103.003 21.952 103.003 22.744C103.003 23.488 103.279 24.1 103.831 24.58C104.383 25.036 105.271 25.468 106.495 25.876L108.043 26.344C109.795 26.896 111.043 27.628 111.787 28.54C112.531 29.452 112.903 30.544 112.903 31.816C112.903 33.52 112.219 34.9 110.851 35.956C109.507 36.988 107.599 37.504 105.127 37.504ZM118.649 17.2C117.857 17.2 117.185 16.948 116.633 16.444C116.081 15.94 115.805 15.304 115.805 14.536C115.805 13.744 116.081 13.108 116.633 12.628C117.185 12.124 117.857 11.872 118.649 11.872C119.441 11.872 120.113 12.124 120.665 12.628C121.217 13.108 121.493 13.744 121.493 14.536C121.493 15.304 121.217 15.94 120.665 16.444C120.113 16.948 119.441 17.2 118.649 17.2ZM114.509 37V36.316L115.049 36.172C115.529 36.028 115.853 35.812 116.021 35.524C116.189 35.236 116.285 34.852 116.309 34.372V27.748C116.309 27.004 116.309 26.32 116.309 25.696C116.309 25.048 116.297 24.388 116.273 23.716C116.273 23.236 116.177 22.864 115.985 22.6C115.817 22.312 115.493 22.12 115.013 22.024L114.509 21.916V21.268L120.809 19.18L121.241 19.576L121.133 24.688V34.408C121.133 34.888 121.217 35.272 121.385 35.56C121.577 35.848 121.901 36.064 122.357 36.208L122.753 36.316V37H114.509ZM132.128 30.844C130.544 30.844 129.188 30.58 128.06 30.052V31.348C128.06 32.068 128.42 32.5 129.14 32.644L135.548 33.832C136.772 34.072 137.852 34.372 138.788 34.732C139.724 35.068 140.456 35.56 140.984 36.208C141.512 36.832 141.776 37.684 141.776 38.764C141.776 39.916 141.392 40.984 140.624 41.968C139.88 42.976 138.764 43.78 137.276 44.38C135.812 45.004 133.976 45.316 131.768 45.316C129.872 45.316 128.36 45.112 127.232 44.704C126.128 44.32 125.336 43.816 124.856 43.192C124.376 42.568 124.136 41.896 124.136 41.176C124.136 40.312 124.424 39.448 125 38.584C125.6 37.72 126.368 37 127.304 36.424C125.84 35.872 125.108 34.996 125.108 33.796C125.108 33.34 125.216 32.92 125.432 32.536C125.648 32.152 125.912 31.768 126.224 31.384L127.52 29.764C125.792 28.756 124.928 27.184 124.928 25.048C124.928 23.296 125.54 21.88 126.764 20.8C128.012 19.72 129.8 19.18 132.128 19.18C134.456 19.18 136.256 19.72 137.528 20.8C138.296 20.68 139.016 20.488 139.688 20.224C140.36 19.96 140.984 19.6 141.56 19.144L142.064 19.504V21.52H138.176C138.944 22.48 139.328 23.656 139.328 25.048C139.328 26.752 138.704 28.144 137.456 29.224C136.232 30.304 134.456 30.844 132.128 30.844ZM132.056 29.872C133.064 29.872 133.796 29.488 134.252 28.72C134.732 27.928 134.972 26.668 134.972 24.94C134.972 23.236 134.744 22.012 134.288 21.268C133.832 20.524 133.124 20.152 132.164 20.152C131.204 20.152 130.484 20.536 130.004 21.304C129.548 22.048 129.32 23.284 129.32 25.012C129.32 26.74 129.536 27.988 129.968 28.756C130.4 29.5 131.096 29.872 132.056 29.872ZM126.944 40.132C126.944 41.452 127.364 42.436 128.204 43.084C129.044 43.756 130.376 44.092 132.2 44.092C134.216 44.092 135.704 43.756 136.664 43.084C137.648 42.436 138.14 41.572 138.14 40.492C138.14 39.82 137.888 39.292 137.384 38.908C136.904 38.524 136.088 38.224 134.936 38.008L128.492 36.748C128.396 36.724 128.3 36.7 128.204 36.676C127.844 37.156 127.544 37.708 127.304 38.332C127.064 38.956 126.944 39.556 126.944 40.132ZM143.232 37V36.28L143.7 36.136C144.564 35.872 144.996 35.272 144.996 34.336V15.796C144.996 15.292 144.912 14.92 144.744 14.68C144.576 14.416 144.252 14.224 143.772 14.104L143.232 13.96V13.276L149.316 11.728L149.892 12.052L149.748 17.128V21.736C150.588 21.04 151.5 20.44 152.484 19.936C153.492 19.432 154.572 19.18 155.724 19.18C157.308 19.18 158.544 19.624 159.432 20.512C160.344 21.4 160.8 22.768 160.8 24.616V34.372C160.8 34.852 160.896 35.236 161.088 35.524C161.28 35.812 161.616 36.028 162.096 36.172L162.42 36.28V37H154.212V36.28L154.644 36.136C155.508 35.896 155.94 35.296 155.94 34.336V23.932C155.94 22.948 155.772 22.264 155.436 21.88C155.1 21.496 154.512 21.304 153.672 21.304C153.096 21.304 152.484 21.412 151.836 21.628C151.212 21.844 150.552 22.204 149.856 22.708V34.408C149.856 34.888 149.952 35.272 150.144 35.56C150.336 35.848 150.66 36.052 151.116 36.172L151.44 36.28V37H143.232ZM170.46 37.504C168.972 37.504 167.796 37.144 166.932 36.424C166.092 35.68 165.672 34.48 165.672 32.824C165.672 32.248 165.672 31.708 165.672 31.204C165.696 30.676 165.708 30.064 165.708 29.368V20.836H163.152V20.044L164.124 19.9C164.82 19.78 165.408 19.564 165.888 19.252C166.392 18.94 166.848 18.508 167.256 17.956L169.596 14.716H170.676L170.568 19.72H174.672V20.836H170.532V33.112C170.532 33.976 170.712 34.624 171.072 35.056C171.456 35.488 171.924 35.704 172.476 35.704C172.956 35.704 173.388 35.596 173.772 35.38C174.156 35.14 174.54 34.828 174.924 34.444L175.392 34.984C174.936 35.776 174.3 36.4 173.484 36.856C172.668 37.288 171.66 37.504 170.46 37.504Z" fill="currentColor"/>
</svg>
