<svg viewBox="0 0 33 80" fill="none" xmlns="http://www.w3.org/2000/svg">
<path d="M1.70711 0.79387C1.31658 0.403345 0.683418 0.403345 0.292893 0.79387C-0.0976311 1.18439 -0.0976311 1.81756 0.292893 2.20808L1.70711 0.79387ZM32 33.501C32.5523 33.501 33 33.0533 33 32.501L33 23.501C33 22.9487 32.5523 22.501 32 22.501C31.4477 22.501 31 22.9487 31 23.501L31 31.501L23 31.501C22.4477 31.501 22 31.9487 22 32.501C22 33.0533 22.4477 33.501 23 33.501L32 33.501ZM0.292893 2.20808L31.2929 33.2081L32.7071 31.7939L1.70711 0.79387L0.292893 2.20808Z" fill="currentColor"/>
<path d="M0.292893 77.7919C-0.0976311 78.1824 -0.0976311 78.8156 0.292893 79.2061C0.683418 79.5967 1.31658 79.5967 1.70711 79.2061L0.292893 77.7919ZM33 47.499C33 46.9467 32.5523 46.499 32 46.499L23 46.499C22.4477 46.499 22 46.9467 22 47.499C22 48.0513 22.4477 48.499 23 48.499L31 48.499L31 56.499C31 57.0513 31.4477 57.499 32 57.499C32.5523 57.499 33 57.0513 33 56.499L33 47.499ZM1.70711 79.2061L32.7071 48.2061L31.2929 46.7919L0.292893 77.7919L1.70711 79.2061Z" fill="currentColor"/>
</svg>
