<svg viewBox="0 0 30 30" fill="none" xmlns="http://www.w3.org/2000/svg">
<path d="M6.19643 2.5C4.22656 2.5 2.625 4.10156 2.625 6.07143V23.9286C2.625 25.8984 4.22656 27.5 6.19643 27.5H24.0536C26.0234 27.5 27.625 25.8984 27.625 23.9286V6.07143C27.625 4.10156 26.0234 2.5 24.0536 2.5H6.19643ZM22.7757 7.1875L16.9833 13.8058L23.7969 22.8125H18.4621L14.2879 17.3493L9.50558 22.8125H6.85491L13.0491 15.731L6.51451 7.1875H11.9833L15.7612 12.1819L20.125 7.1875H22.7757ZM20.6663 21.2277L11.1853 8.68862H9.60603L19.1931 21.2277H20.6607H20.6663Z" fill="white"/>
</svg>
